# xmcd
#
# Track frame offsets: 
#        150
#        23464
#        43698
#        65791
#        85094
#        134473
#        219570
#
# Disc length: 3731 seconds
#
# Revision: 0
# Processed by: cddbd v1.5.2PL0 Copyright (c) Steve Scherf et al.
# Submitted via: ExactAudioCopy v1.3
#
DISCID=5d0e9107
DTITLE=Angel Forrest - 'Live' Love At The Palace [Disk 2]
DYEAR=2014
DGENRE=Blues Rock
TTITLE0=Tell Me why
TTITLE1=Roll On Down
TTITLE2=Volcano
TTITLE3=Papa Come Quick
TTITLE4=Turtle Blues
TTITLE5=Mama Whole Lotta Love
TTITLE6=Listen
EXTD=
EXTT0=
EXTT1=
EXTT2=
EXTT3=
EXTT4=
EXTT5=
EXTT6=
PLAYORDER=
